<?xml version="1.0" encoding="UTF-8" standalone="no"?>
<svg
   xmlns:dc="http://purl.org/dc/elements/1.1/"
   xmlns:cc="http://creativecommons.org/ns#"
   xmlns:rdf="http://www.w3.org/1999/02/22-rdf-syntax-ns#"
   xmlns:svg="http://www.w3.org/2000/svg"
   xmlns="http://www.w3.org/2000/svg"
   width="98.111359mm"
   height="97.04158mm"
   viewBox="0 0 98.111359 97.04158"
   version="1.1"
   id="svg8">
  <defs
     id="defs2" />
  <metadata
     id="metadata5">
    <rdf:RDF>
      <cc:Work
         rdf:about="">
        <dc:format>image/svg+xml</dc:format>
        <dc:type
           rdf:resource="http://purl.org/dc/dcmitype/StillImage" />
        <dc:title></dc:title>
      </cc:Work>
    </rdf:RDF>
  </metadata>
  <g
     id="layer1"
     transform="translate(-26.544641,-29.500653)">
    <path
       style="fill:#55828b;fill-opacity:1;stroke-width:0.0959764"
       d="m 72.863149,126.49328 c -8.023511,-0.33829 -15.560956,-2.51558 -22.410529,-6.47357 -5.311294,-3.0691 -10.401943,-7.62169 -14.219119,-12.71622 -4.646207,-6.20097 -7.702407,-13.355484 -9.005154,-21.080914 -1.33389,-7.910089 -0.717973,-15.622969 1.865123,-23.356223 2.018319,-6.042425 4.795709,-11.091878 8.68407,-15.78814 1.022965,-1.235509 3.795128,-4.077521 4.821314,-4.942792 0.344319,-0.290329 0.740648,-0.636315 0.880722,-0.768857 1.053995,-0.997301 4.234486,-2.409385 6.067221,-2.693743 1.558766,-0.241851 1.992473,0.355308 1.289768,1.775852 -0.689384,1.393622 -3.046551,4.162286 -4.957119,5.822495 -6.934705,6.025992 -11.936566,15.375687 -13.552041,25.332067 -0.428011,2.637881 -0.487172,3.451952 -0.484534,6.667354 0.0025,2.982799 0.04161,3.59683 0.385711,6.046522 1.129446,8.040744 4.617459,15.743859 9.942105,21.956669 6.543034,7.63444 15.542472,12.77499 25.317773,14.46171 2.620205,0.45211 3.639213,0.5261 7.246229,0.5261 3.612189,0 4.513895,-0.0654 7.342208,-0.53281 3.416878,-0.56464 7.766717,-1.84915 10.507938,-3.10301 0.294278,-0.13461 0.558534,-0.24474 0.587239,-0.24474 0.140945,0 3.570378,-1.77375 4.453022,-2.30317 4.839424,-2.90271 8.895744,-6.43724 12.391674,-10.79763 4.07433,-5.081813 7.40369,-12.464517 8.6348,-19.147317 0.57199,-3.104874 0.69137,-4.516507 0.68184,-8.06203 -0.0114,-4.235476 -0.24283,-6.609689 -0.99173,-10.173515 -0.82124,-3.908128 -2.70453,-8.999033 -4.54831,-12.29502 -3.54189,-6.331583 -8.94812,-12.184742 -14.92058,-16.154061 -1.699363,-1.129405 -2.695888,-1.699203 -4.688071,-2.680578 -4.264123,-2.10056 -7.606395,-3.336316 -11.483976,-4.246032 -1.915926,-0.449495 -2.731212,-0.569934 -5.786335,-0.854794 -1.387721,-0.129391 -2.593634,-0.274711 -2.6798,-0.322933 -0.132954,-0.07441 -0.113017,-0.110249 0.13172,-0.236807 0.497191,-0.257108 1.465135,-0.429851 3.075477,-0.548861 3.506897,-0.259175 8.369558,0.368771 12.568495,1.623049 1.873369,0.5596 3.92728,1.33178 5.599289,2.105083 0.343117,0.158691 0.904579,0.404369 1.247694,0.545951 2.008771,0.828886 5.776637,3.120382 8.445937,5.136539 3.59324,2.714026 6.8909,5.962869 9.30277,9.165051 1.46049,1.939072 3.11429,4.49393 4.16532,6.434793 2.57841,4.761361 4.42777,10.54351 5.33989,16.695555 0.42013,2.833667 0.65947,6.126101 0.48975,6.73727 -0.0557,0.200748 -0.10212,0.948051 -0.10307,1.660677 -0.005,3.809145 -0.86414,8.519202 -2.36332,12.956833 -4.70711,13.933207 -15.15021,24.942827 -28.808247,30.371047 -3.459414,1.3749 -7.075531,2.39242 -10.241665,2.88185 -0.527868,0.0816 -1.087091,0.17027 -1.242713,0.19705 -0.790812,0.13605 -2.951425,0.32942 -4.227949,0.3784 -0.791806,0.0304 -1.785164,0.07 -2.207458,0.088 -0.422298,0.018 -1.56682,-0.001 -2.543379,-0.0421 z m 0.527871,-12.76627 c -3.028992,-0.21421 -6.276667,-0.98816 -9.640502,-2.29743 -1.340698,-0.52182 -4.286714,-2.04865 -5.685851,-2.94681 -1.986966,-1.27551 -3.514352,-2.50464 -5.22195,-4.20225 -2.861568,-2.84484 -4.983161,-5.712392 -6.479825,-8.758149 -0.317755,-0.646642 -0.598245,-1.175711 -0.62331,-1.175711 -0.02507,0 -0.169366,0.09152 -0.320671,0.203388 -0.577176,0.426728 -1.78441,0.06198 -2.185904,-0.660437 -0.481219,-0.865856 -0.578544,-1.061568 -0.789404,-1.587401 -0.258032,-0.643461 -0.236794,-1.249914 0.07829,-2.235361 0.471044,-1.47322 1.288553,-2.661387 2.396057,-3.482416 1.409304,-1.044759 2.984129,-1.4777 4.767331,-1.310601 l 0.71935,0.06741 v 0.705149 c 0,0.715626 -0.286061,2.007516 -0.811321,3.664003 l -0.249362,0.786408 -0.402728,0.02938 -0.402728,0.02938 0.621144,0.316677 c 0.341631,0.174173 0.742033,0.422258 0.889784,0.551305 0.14775,0.129047 0.59339,0.881825 0.990311,1.67284 2.119122,4.223168 5.539345,8.086646 9.461844,10.688076 3.804668,2.52329 7.963061,4.06246 12.489668,4.62286 1.536063,0.19017 4.837377,0.18927 6.380205,-0.002 6.988309,-0.86516 12.953898,-3.87709 17.607516,-8.889735 4.366156,-4.702929 7.644536,-11.526174 8.616846,-17.93402 0.19933,-1.313662 0.20742,-1.582613 0.14446,-4.798824 -0.0367,-1.873942 -0.096,-3.839061 -0.13191,-4.366932 l -0.0652,-0.959768 -0.47988,-0.05692 c -0.26393,-0.0313 -0.77046,-0.193271 -1.12561,-0.359913 -0.35516,-0.166642 -0.76842,-0.302987 -0.91836,-0.302987 -0.54388,0 -1.30353,-0.299574 -1.6256,-0.64107 -0.26221,-0.278027 -0.31337,-0.405779 -0.31292,-0.78142 0.001,-0.85233 0.15087,-1.1461 1.02612,-2.01155 0.44865,-0.443624 0.96039,-0.867036 1.1372,-0.940912 0.8157,-0.340822 2.9697,-0.261341 4.14882,0.153086 2.12714,0.747634 4.0069,3.054589 4.30208,5.279804 0.0563,0.424097 0.0457,0.45115 -0.21504,0.553282 -0.59293,0.232204 -1.10229,0.304093 -2.60617,0.367824 -1.37782,0.05839 -1.55681,0.08452 -1.50243,0.219334 0.34633,0.858664 0.89483,2.776625 1.08677,3.800156 0.0594,0.316721 0.17781,0.942969 0.26315,1.391657 0.33625,1.767853 0.27905,6.258634 -0.11002,8.637889 -0.26085,1.595197 -0.32441,1.924382 -0.56154,2.908355 -1.18545,4.919173 -3.72406,9.70812 -7.00562,13.215704 -4.081858,4.36302 -8.697993,7.35971 -14.131122,9.17361 -4.438008,1.48167 -8.697042,2.00604 -13.521966,1.66483 z M 62.519036,78.696261 c -1.586038,-0.311559 -3.560824,-2.436899 -5.050861,-5.435923 -0.801244,-1.612685 -1.19543,-2.693374 -1.725786,-4.731368 -0.558266,-2.145243 -0.664391,-2.885249 -0.667547,-4.654862 -0.0042,-2.381982 0.483181,-3.835647 1.509234,-4.500952 0.582236,-0.377528 1.446961,-0.356013 2.275157,0.0566 0.724614,0.361012 2.207368,1.783916 2.881049,2.764759 2.623263,3.819335 4.229273,9.513852 3.72666,13.213824 -0.334336,2.461228 -1.355927,3.600646 -2.947906,3.287919 z m 21.698123,-7.658667 c -1.370798,-0.473652 -2.95553,-2.173984 -4.324109,-4.639543 -0.588501,-1.060208 -1.467656,-3.143828 -1.70179,-4.033289 -0.974111,-3.700564 -1.036772,-4.069941 -1.030141,-6.072801 0.004,-1.222186 0.04468,-1.685862 0.199068,-2.271677 0.47289,-1.794312 1.293686,-2.581945 2.554997,-2.451766 1.623307,0.167539 3.737612,2.34179 5.276739,5.426347 1.61184,3.23028 2.380198,6.241318 2.392216,9.374631 0.0058,1.515045 -0.01984,1.819951 -0.208565,2.478422 -0.268475,0.936773 -0.490099,1.371394 -0.899341,1.763678 -0.632615,0.606403 -1.347065,0.741126 -2.259074,0.425998 z"
       id="path847" />
  </g>
</svg>
