<?xml version="1.0" encoding="UTF-8" standalone="no"?>
<svg
   xmlns:dc="http://purl.org/dc/elements/1.1/"
   xmlns:cc="http://creativecommons.org/ns#"
   xmlns:rdf="http://www.w3.org/1999/02/22-rdf-syntax-ns#"
   xmlns:svg="http://www.w3.org/2000/svg"
   xmlns="http://www.w3.org/2000/svg"
   xmlns:xlink="http://www.w3.org/1999/xlink"
   id="svg8"
   version="1.1"
   viewBox="0 0 121.9242 131.98419"
   height="131.98419mm"
   width="121.9242mm">
  <defs
     id="defs2">
    <linearGradient
       id="linearGradient886">
      <stop
         id="stop882"
         offset="0"
         style="stop-color:#d0d2f3;stop-opacity:1" />
      <stop
         id="stop884"
         offset="1"
         style="stop-color:#89d7ff;stop-opacity:0" />
    </linearGradient>
    <linearGradient
       gradientUnits="userSpaceOnUse"
       y2="171.98576"
       x2="-408.76285"
       y1="666.43359"
       x1="-328.31055"
       id="linearGradient888"
       xlink:href="#linearGradient886" />
  </defs>
  <metadata
     id="metadata5">
    <rdf:RDF>
      <cc:Work
         rdf:about="">
        <dc:format>image/svg+xml</dc:format>
        <dc:type
           rdf:resource="http://purl.org/dc/dcmitype/StillImage" />
        <dc:title></dc:title>
      </cc:Work>
    </rdf:RDF>
  </metadata>
  <g
     transform="translate(147.10762,-44.488756)"
     id="layer1">
    <path
       transform="scale(0.26458333)"
       d="m -245.29102,168.14648 -11.64062,6.12696 c -6.40195,3.36995 -14.79061,7.81254 -18.64063,9.87109 -12.47478,6.67014 -36.41075,19.26118 -57,29.98438 -15.79736,8.22715 -17.31606,9.307 -15.77734,11.21289 0.79699,0.98715 33.07764,43.32974 51.7832,67.92382 13.11859,17.24832 16.01847,20.75378 16.64844,20.11915 0.40471,-0.40769 1.60703,-4.56719 2.67188,-9.24219 4.35375,-19.11406 7.33732,-31.49545 7.66992,-31.82813 0.70926,-0.70927 19.23951,7.9687 27.5039,12.88086 45.35729,26.95928 74.73482,71.80486 82.2793,121.6875 -0.0712,0.25481 -0.12109,0.66253 -0.12109,1.25977 0,1.33975 0.21672,1.89862 0.48437,1.29101 2.05814,15.14967 2.1065,30.73912 -0.0176,46.41602 -0.28796,-0.62027 -0.50004,-0.38013 -0.54492,0.70898 -0.03,0.72868 0.0754,1.22729 0.25196,1.36133 -0.27895,1.88934 -0.58134,3.77918 -0.92383,5.66992 -5.63129,31.08772 -23.14387,64.98717 -45.41992,89.41797 l -1.73829,1.57227 c -1.78749,1.61537 -3.25,3.07803 -3.25,3.25 0,0.16733 0.0483,0.25151 0.13672,0.27344 -0.45506,0.45682 -0.90882,0.91862 -1.36718,1.36718 0.096,-0.19058 0.13734,-0.33008 0.041,-0.33008 -0.275,0 -1.31506,0.90001 -2.31055,2 -0.64493,0.71264 -1.08813,1.3116 -1.26757,1.66602 -1.43652,1.31442 -2.88268,2.5966 -4.34571,3.82422 -23.90078,20.055 -51.96248,33.8801 -80.38672,39.60352 -5.8287,1.17365 -16.9371,2.53393 -25.78906,3.29101 -0.34257,-0.31881 -1.18714,-0.35289 -1.89844,-0.0684 -0.24363,0.0975 -0.37798,0.18652 -0.43164,0.26563 -3.19784,0.24451 -5.97982,0.39356 -7.88086,0.39062 -1.89552,-0.003 -4.33953,-0.12866 -7.02929,-0.32226 0.12591,-0.0861 0.0716,-0.19262 -0.22071,-0.31055 -0.68749,-0.27742 -1.8125,-0.27742 -2.5,0 -0.0675,0.0272 -0.11244,0.054 -0.15625,0.0801 -9.11452,-0.78854 -20.50419,-2.32113 -27.98046,-3.89453 -31.93151,-6.72001 -61.57073,-23.02133 -85.60352,-45.80079 -0.71018,-0.81976 -1.76693,-1.9563 -3.00977,-3.22265 -1.77888,-1.81258 -3.42427,-3.36494 -4.29492,-4.07617 -1.1393,-1.20252 -2.27171,-2.41163 -3.38086,-3.64453 0.4238,0.30751 0.67578,0.28695 0.67578,-0.15626 0,-0.20764 -0.7875,-0.99515 -1.75,-1.75 -1.14968,-0.9016 -1.47413,-1.12024 -1.09765,-0.57421 -16.32785,-18.78599 -29.17219,-40.87484 -37.09766,-65.01172 -3.27007,-9.95897 -5.71817,-19.79872 -7.37109,-29.69336 0.24532,-0.38846 0.25987,-1.13161 0,-1.78125 -0.13336,-0.33331 -0.25079,-0.47523 -0.34766,-0.45508 -0.83965,-5.42766 -1.45659,-10.87451 -1.8164,-16.37305 0.0603,0.0938 0.13016,-0.13077 0.20507,-0.73437 0.22186,-1.78749 0.22186,-4.71251 0,-6.5 -0.22094,-1.7798 -0.40274,-0.33052 -0.40429,3.21094 -0.25225,-5.7164 -0.2486,-11.49636 0.008,-17.36719 0.0216,3.07797 0.18915,4.32673 0.39648,2.65625 0.22186,-1.78749 0.22186,-4.71251 0,-6.5 -0.0555,-0.44687 -0.10803,-0.68965 -0.15625,-0.74805 0.35038,-5.34883 0.91646,-10.7876 1.67774,-16.32617 0.0928,0.1611 0.21677,0.19534 0.35937,0.0527 0.33222,-0.33233 0.36688,-1.19416 0.0781,-1.91601 -0.0545,-0.13623 -0.10317,-0.20093 -0.15235,-0.27735 0.32813,-2.24351 0.68758,-4.5044 1.08204,-6.78515 0.17848,-1.03175 0.23545,-1.89145 0.19726,-2.54102 1.2643,1.17526 1.42412,0.79815 0.84766,-1.40625 -0.31593,-1.20888 -0.20734,-2.67138 0.24023,-3.25 0.81808,-1.05752 3.10156,-9.52266 3.10156,-11.49609 0,-0.12319 -0.0328,-0.23748 -0.0742,-0.34766 0.0836,0.16566 0.14352,0.34484 0.15625,0.54102 0.0448,0.6875 0.87601,-1.45 1.84765,-4.75 l 1.76758,-6 -1.80078,-1.29297 c 1.7648,0.95748 3.16613,1.08604 2.94531,0.043 -0.0873,-0.4125 0.20495,-1.65 0.64844,-2.75 1.46709,-3.6386 2.21884,-5.5436 2.61914,-6.70508 0.66872,0.1861 0.83772,-0.0726 0.3418,-0.875 -0.0153,-0.0247 -0.0152,-0.051 -0.0274,-0.0762 0.078,-0.33436 0.0622,-0.49037 -0.0527,-0.47461 0.0585,-0.22762 0.22345,-0.42959 0.49414,-0.5332 0.48193,-0.18449 2.59766,-3.93594 4.70312,-8.33594 2.10547,-4.4 3.97679,-8.26314 4.15821,-8.58399 0.0412,-0.0729 0.0431,-0.14056 0.0176,-0.20507 0.79515,0.13438 1.25585,-0.0844 1.25585,-0.72266 0,-0.37353 3.20602,-5.532 7.12305,-11.46289 l 3.00781,-4.55469 c 0.27641,0.16558 0.99089,-0.43646 1.99805,-1.7207 1.24388,-1.58608 1.20717,-1.62083 -0.37891,-0.37696 -0.21606,0.16946 -0.36318,0.31856 -0.55468,0.48438 l 2.35156,-3.55859 c -0.009,0.0517 -0.003,0.10967 -0.0195,0.1582 -0.29061,0.84887 1.37148,-0.70703 3.69336,-3.45703 2.32184,-2.75 8.15481,-9.05816 12.96094,-14.01953 l 8.73828,-9.02149 -3.45313,-3.08398 -3.45312,-3.08399 -5.16993,3.40625 c -7.85314,5.1719 -19.39247,15.16331 -28.84375,24.97657 l -8.5,8.82421 7.75,-7.4746 c 1.39679,-1.34706 2.6405,-2.48142 3.77539,-3.48829 -1.58146,1.49191 -3.75894,3.73883 -7.02734,7.16211 -5.56074,5.82426 -9.7463,10.91269 -9.30273,11.30664 0.0126,0.0112 0.16521,0.13224 0.18164,0.14649 -0.33774,0.3696 -0.74682,0.83737 -1.22071,1.39453 0.21021,-0.33093 0.28496,-0.54492 0.1543,-0.54492 -0.275,0 -1.31506,0.9 -2.31055,2 -0.99552,1.1 -1.58374,2 -1.30859,2 0.23939,0 1.05913,-0.69541 1.92383,-1.59766 -2.04182,2.49303 -4.49102,5.61449 -6.25781,8.07422 l -3.64258,5.07227 0.45508,0.36328 c -1.70057,2.05327 -4.66812,7.11608 -4.66211,8.31836 0.003,0.53874 0.58881,1.33692 2.36718,2.95703 l -3.0664,-2.78906 -1.76758,3.05078 c -1.10067,1.89963 -1.78721,3.37994 -2.04297,4.65625 -0.38499,0.0498 -1.6285,2.20871 -3.84375,6.64453 -1.85405,3.7125 -3.17076,7.3125 -2.92773,8 0.24294,0.68749 -0.15928,1.25286 -0.89258,1.25586 -0.54071,0.002 -0.34875,0.43521 0.37305,1.04492 -0.089,-0.029 -0.16901,-0.0508 -0.22657,-0.0508 -1.92347,0 -9.01018,20.54148 -12.54101,36.35351 -1.08102,4.84108 -1.98511,9.68857 -2.73438,14.53711 -0.009,-0.0256 -0.0114,-0.0528 -0.0215,-0.0781 -0.31918,-0.79775 -0.55552,-0.56145 -0.60352,0.60351 -0.0341,0.8288 0.10568,1.36413 0.32813,1.39649 -3.18177,21.85601 -3.02253,43.69542 0.20508,64.87304 -0.28172,-0.58649 -0.48897,-0.34322 -0.53321,0.73047 -0.0434,1.054 0.19317,1.64472 0.52539,1.3125 0.12319,-0.12322 0.19028,-0.33158 0.23047,-0.5664 9.42874,59.15833 42.87529,113.00738 94.66406,147.35156 28.98112,19.21907 58.3524,30.20682 92.71094,34.70117 -0.16298,0.0331 -0.3253,0.0683 -0.46094,0.12305 -0.68749,0.27761 -0.12499,0.50391 1.25,0.50391 1.06278,0 1.6334,-0.13652 1.52344,-0.32618 15.08177,1.8059 35.09752,1.67653 52.08203,-0.10351 -0.4219,0.24268 0.14442,0.42969 1.39453,0.42969 1.37511,0 1.9375,-0.22649 1.25,-0.50391 -0.17488,-0.0706 -0.3786,-0.12158 -0.5957,-0.15625 5.17966,-0.59275 10.05113,-1.3345 14.3457,-2.23242 67.37394,-14.08683 118.68854,-45.75879 154.64844,-95.44922 22.78337,-31.48269 36.76158,-67.34357 41.431642,-105.0625 -0.03883,1.0391 0.195728,1.62068 0.525391,1.29101 0.332221,-0.33229 0.366881,-1.19412 0.07813,-1.91601 -0.22704,-0.56743 -0.408248,-0.5877 -0.513672,-0.14649 2.861428,-23.77273 2.022092,-48.27363 -2.646491,-72.88086 0.0266,-0.0152 0.0539,-0.0285 0.082,-0.0566 0.33222,-0.33233 0.36688,-1.19416 0.0781,-1.91601 -0.24766,-0.619 -0.44222,-0.59856 -0.54102,-0.0215 -0.0853,-0.43037 -0.15849,-0.86059 -0.24609,-1.29101 -8.31371,-40.84865 -27.91602,-78.47251 -55.81641,-108.99805 0.62395,0.54553 0.91992,0.61189 0.91992,0.17188 0,-0.17912 -1.23747,-1.41662 -2.75,-2.75 l -2.75,-2.42383 1.81836,2.06054 c -2.44278,-2.5822 -4.94392,-5.11282 -7.50586,-7.58593 0.12992,0.0107 0.1875,-0.0868 0.1875,-0.28711 0,-0.1721 -1.46251,-1.6346 -3.25,-3.25 l -3.25,-2.9375 2.9375,3.25 c 0.0282,0.0312 0.0425,0.0455 0.0703,0.0762 -16.04756,-14.9005 -34.27585,-27.65777 -54.25,-37.69727 -8.66431,-4.35488 -21.51586,-9.73108 -27.00782,-11.29687 -3.72132,-1.06096 -3.83877,-1.7347 -1.80078,-10.26758 0.79658,-3.33514 2.41241,-10.33945 3.58985,-15.56445 1.17743,-5.225 2.72598,-11.63666 3.4414,-14.24805 z m 73.71875,91.4961 1.90625,2.25 c 1.04773,1.23749 2.06027,2.25 2.25,2.25 0.11343,0 0.19089,-0.0199 0.24805,-0.0527 l 2.5332,2.80274 c 1.61537,1.7875 3.07804,3.25 3.25,3.25 0.77258,0 0.0919,-0.82472 -2.9375,-3.5625 l -2.80664,-2.53711 c 0.21383,-0.25395 -0.48257,-1.04569 -2.19336,-2.49414 z m -316.53906,32.02148 c 0.0266,0.009 0.0391,0.0326 0.0391,0.0684 0,0.25337 0.44658,0.81278 1.10938,1.49024 -0.0907,-0.0862 -0.22031,-0.20122 -0.29492,-0.27539 -0.77364,-0.7691 -1.34421,-1.03382 -2.78321,0 1.04514,-0.84943 1.76082,-1.34153 1.92969,-1.28321 z m 4.74219,4.63672 c 0.54322,0.41229 1.02435,0.80327 1.45508,1.17774 l -0.27539,-0.21485 c -0.37917,-0.29558 -0.77953,-0.63819 -1.17969,-0.96289 z m -19.35352,21.43555 c 0.34565,0.27769 0.38205,0.3158 0.73633,0.59961 2.50838,2.00942 4.74188,3.42785 6.34766,4.10742 -1.20198,-0.17796 -4.3407,-2.39605 -7.08399,-4.70703 z m -10.02929,18.4082 c 2.37979,1.87527 4.47036,3.37152 6.07617,4.38086 -1.3499,-0.72156 -3.28076,-2.12065 -6.07617,-4.38086 z m -9.66016,5.44531 c 1.74005,1.55898 4.72916,4.00057 9.05469,7.45899 -2.4749,-1.81739 -6.0285,-4.70452 -8.20313,-6.6836 z m -7.23828,6.2461 c 0.22344,1.78896 1.57754,3.28833 4.23633,5.30664 2.53587,1.92499 6.07321,4.7375 7.85937,6.25 -1.78616,-1.5125 -5.33188,-4.32501 -7.8789,-6.25 -3.09899,-2.34218 -4.498,-4.07892 -4.22852,-5.25 0.005,-0.0232 0.007,-0.034 0.0117,-0.0566 z m 16.46094,14.30664 c 0.12031,0 0.23624,0.0286 0.34765,0.0684 -0.11117,-0.0353 -0.22433,-0.0684 -0.34765,-0.0684 z m -17.82617,5.28125 c 4.24091,3.18145 9.55525,7.36608 12.45898,9.83984 -0.52137,-0.35194 -1.07707,-0.76451 -1.61133,-1.23437 -1.32166,-1.16236 -3.97931,-3.28615 -5.9043,-4.71875 -1.3961,-1.03899 -3.26633,-2.52401 -4.94335,-3.88672 z m 12.30859,33.06445 c -0.15157,-0.023 -0.25516,0.34221 -0.28516,1.07031 -0.0434,1.05434 0.19317,1.64472 0.52539,1.3125 0.33222,-0.33229 0.36688,-1.19416 0.0781,-1.91601 -0.11969,-0.29916 -0.22742,-0.45302 -0.31836,-0.4668 z m 0,5 c -0.15157,-0.0229 -0.25516,0.34224 -0.28516,1.07031 -0.0434,1.054 0.19317,1.64472 0.52539,1.3125 0.33222,-0.33229 0.36688,-1.19416 0.0781,-1.91601 -0.11969,-0.29914 -0.22742,-0.45303 -0.31836,-0.4668 z m 421.999999,0 c -0.151571,-0.0229 -0.255157,0.34224 -0.285157,1.07031 -0.04339,1.054 0.193171,1.64472 0.525391,1.3125 0.332221,-0.33229 0.366881,-1.19416 0.07813,-1.91601 -0.119693,-0.29914 -0.227417,-0.45303 -0.318359,-0.4668 z m 0,3 c -0.151571,-0.0229 -0.255157,0.34224 -0.285157,1.07031 -0.04339,1.05438 0.193171,1.64472 0.525391,1.3125 0.332221,-0.33229 0.366881,-1.19416 0.07813,-1.91601 -0.119693,-0.29916 -0.227417,-0.45303 -0.318359,-0.4668 z m -422.898439,10.11719 c -0.18089,-0.0674 -0.30859,0.50586 -0.30859,1.53711 0,1.3751 0.22844,1.93753 0.50586,1.25 0.27741,-0.6875 0.27741,-1.81251 0,-2.5 -0.0694,-0.17189 -0.13697,-0.26465 -0.19727,-0.28711 z m 423.898439,1.88281 c -0.151571,-0.0229 -0.255157,0.34224 -0.285157,1.07031 -0.04343,1.054 0.193171,1.64472 0.525391,1.3125 0.332221,-0.33229 0.366881,-1.19416 0.07813,-1.91601 -0.119693,-0.29916 -0.227417,-0.45303 -0.318359,-0.4668 z m -62.902349,0.83984 c -0.11931,0.11885 -0.20189,0.93944 -0.20898,2.31446 -0.0111,2.20002 0.18534,3.21782 0.43555,2.26172 0.24907,-0.95607 0.25877,-2.75609 0.0195,-4 -0.0897,-0.46647 -0.1745,-0.64748 -0.2461,-0.57618 z m -396.09765,0.16016 c -0.15157,-0.0229 -0.25516,0.34221 -0.28516,1.07031 -0.0434,1.05434 0.19317,1.64472 0.52539,1.3125 0.33222,-0.33229 0.36688,-1.19412 0.0781,-1.91601 -0.11969,-0.29914 -0.22742,-0.45303 -0.31836,-0.4668 z m 0,3 c -0.15158,-0.0229 -0.25516,0.34221 -0.28516,1.07031 -0.0434,1.05396 0.19317,1.64472 0.52539,1.3125 0.33222,-0.33229 0.36688,-1.19412 0.0781,-1.91601 -0.11971,-0.29914 -0.22741,-0.45303 -0.31836,-0.4668 z m 459.193358,1.79688 c -0.116731,0.13331 -0.197266,2.26525 -0.197266,5.85742 0,5.22501 0.169016,7.36248 0.375,4.75 0.205985,-2.61252 0.205985,-6.88748 0,-9.5 -0.06437,-0.8164 -0.124674,-1.16802 -0.177734,-1.10742 z m -63.025388,2.79882 c -0.1274,7e-4 -0.21746,1.28984 -0.22266,3.5586 -0.006,3.29813 0.17601,4.77024 0.4043,3.26758 0.22942,-1.50267 0.23433,-4.20265 0.0117,-6 -0.0695,-0.56168 -0.13546,-0.82649 -0.19336,-0.82618 z m -360.16797,3.4043 c -0.15157,-0.0229 -0.25516,0.34224 -0.28516,1.07031 -0.0434,1.054 0.19317,1.64472 0.52539,1.3125 0.33222,-0.33229 0.36688,-1.19416 0.0781,-1.91601 -0.11969,-0.29916 -0.22742,-0.45303 -0.31836,-0.4668 z m -37,3 c -0.15157,-0.0229 -0.25516,0.34224 -0.28516,1.07031 -0.0434,1.054 0.19317,1.64472 0.52539,1.3125 0.33222,-0.33229 0.36688,-1.19416 0.0781,-1.91601 -0.11969,-0.29916 -0.22742,-0.45303 -0.31836,-0.4668 z m 37,2 c -0.15157,-0.023 -0.25516,0.34221 -0.28516,1.07031 -0.0434,1.05434 0.19317,1.64472 0.52539,1.3125 0.33222,-0.33225 0.36688,-1.19416 0.0781,-1.91601 -0.11969,-0.29916 -0.22742,-0.45302 -0.31836,-0.4668 z m -36.85352,1.50195 c -0.16402,-0.0943 -0.27929,0.70861 -0.27929,2.15235 0,1.92502 0.20531,2.71249 0.45703,1.75 0.25171,-0.96253 0.25171,-2.53747 0,-3.5 -0.0629,-0.24063 -0.12306,-0.3709 -0.17774,-0.40235 z m 397,0 c -0.16396,-0.0943 -0.27929,0.70861 -0.27929,2.15235 0,1.92502 0.20531,2.71249 0.45703,1.75 0.25134,-0.96253 0.25134,-2.53747 0,-3.5 -0.0628,-0.24063 -0.12308,-0.3709 -0.17774,-0.40235 z m 62.955081,2.61524 c -0.180857,-0.0674 -0.308593,0.50586 -0.308593,1.53711 -10e-7,1.3751 0.228442,1.93749 0.505859,1.25 0.277417,-0.6875 0.277417,-1.81251 0,-2.5 -0.06932,-0.17188 -0.13698,-0.26465 -0.197266,-0.28711 z m -459.955081,4.38476 c -0.16402,-0.0943 -0.27929,0.70861 -0.27929,2.15235 0,1.92499 0.20531,2.71249 0.45703,1.75 0.25171,-0.9625 0.25171,-2.53751 0,-3.5 -0.0629,-0.24063 -0.12306,-0.3709 -0.17774,-0.40235 z m 0,6 c -0.16402,-0.0943 -0.27929,0.70858 -0.27929,2.15235 0,1.92499 0.20531,2.71249 0.45703,1.75 0.25171,-0.9625 0.25171,-2.53751 0,-3.5 -0.0629,-0.24063 -0.12306,-0.3709 -0.17774,-0.40235 z m 458.853519,4.49805 c -0.151571,-0.0229 -0.255156,0.34224 -0.285157,1.07031 -0.04339,1.054 0.193171,1.64472 0.525391,1.3125 0.332221,-0.33229 0.366881,-1.19416 0.07813,-1.91601 -0.119693,-0.29916 -0.227417,-0.45303 -0.318359,-0.4668 z m -458.999999,1 c -0.15157,-0.0229 -0.25516,0.34221 -0.28516,1.07031 -0.0434,1.05434 0.19317,1.64472 0.52539,1.3125 0.33222,-0.33229 0.36688,-1.19412 0.0781,-1.91601 -0.11969,-0.29914 -0.22742,-0.45303 -0.31836,-0.4668 z m 1,11 c -0.15158,-0.0229 -0.25516,0.34224 -0.28516,1.07031 -0.0434,1.054 0.19317,1.64472 0.52539,1.3125 0.33222,-0.33229 0.36688,-1.19416 0.0781,-1.91601 -0.11971,-0.29916 -0.22741,-0.45303 -0.31836,-0.4668 z m 0,3 c -0.15158,-0.0229 -0.25516,0.34224 -0.28516,1.07031 -0.0434,1.054 0.19317,1.64472 0.52539,1.3125 0.33222,-0.33229 0.36688,-1.19416 0.0781,-1.91601 -0.11971,-0.29916 -0.22741,-0.45303 -0.31836,-0.4668 z m 351.63476,77.6543 c -0.0516,-0.0516 -0.45696,0.2511 -1.25,0.87304 -0.96249,0.75485 -1.75,1.54251 -1.75,1.75 0,0.82303 0.82255,0.29271 2.12891,-1.37304 0.62194,-0.79304 0.92271,-1.19838 0.87109,-1.25 z m -260.5,6.49804 1.90625,2.25 c 1.04773,1.2375 2.06027,2.25 2.25,2.25 0.80024,0 0.20821,-0.8035 -1.90625,-2.59374 z m 4.5,4.50196 c -0.0516,0.0516 0.25111,0.45696 0.87305,1.25 1.30636,1.66571 2.12695,2.19611 2.12695,1.37304 0,-0.20764 -0.7875,-0.99515 -1.75,-1.75 -0.79303,-0.62192 -1.19838,-0.92466 -1.25,-0.87304 z m 307,23.99804 c -0.0516,-0.0516 -0.45696,0.25113 -1.25,0.87305 -0.96249,0.75485 -1.75,1.54251 -1.75,1.75 0,0.82307 0.82255,0.29271 2.12891,-1.37305 0.62194,-0.79303 0.92271,-1.19838 0.87109,-1.25 z m -3,3.00196 c -0.0516,-0.0516 -0.45696,0.25112 -1.25,0.87304 -0.96249,0.75485 -1.75,1.54251 -1.75,1.75 0,0.82307 0.82255,0.29271 2.12891,-1.37304 0.62194,-0.79304 0.92271,-1.19839 0.87109,-1.25 z m -3.18945,3 c -0.275,0 -1.31506,0.89997 -2.31055,2 -0.99552,1.09999 -1.58374,2 -1.30859,2 0.27504,0 1.3131,-0.90001 2.30859,-2 0.99553,-1.10003 1.5857,-2 1.31055,-2 z m -6,6 c -0.275,0 -1.31506,0.89997 -2.31055,2 -0.99549,1.09999 -1.58374,2 -1.30859,2 0.275,0 1.3131,-0.90001 2.30859,-2 0.99553,-1.10003 1.5857,-2 1.31055,-2 z m -3.81055,4 c -0.0516,-0.0516 -0.45698,0.2511 -1.25,0.87304 -0.96249,0.75485 -1.75,1.54251 -1.75,1.75 0,0.82303 0.82252,0.29271 2.12891,-1.37304 0.62192,-0.79304 0.92271,-1.19838 0.87109,-1.25 z m -3,2.99804 c -0.0516,-0.0516 -0.45698,0.25111 -1.25,0.87305 -0.96249,0.75485 -1.75,1.54251 -1.75,1.75 0,0.82303 0.82252,0.29271 2.12891,-1.37305 0.62192,-0.79303 0.92271,-1.19838 0.87109,-1.25 z m -315.5,4.50196 1.90625,2.25 c 1.04773,1.23749 2.06027,2.25 2.25,2.25 0.80028,0 0.20821,-0.80354 -1.90625,-2.59375 z m 159.41797,0.62304 c -0.3474,-0.0143 -0.74454,0.049 -1.10547,0.19336 -0.79774,0.31919 -0.55945,0.55552 0.60547,0.60352 1.054,0.0434 1.64472,-0.19317 1.3125,-0.52539 -0.16614,-0.16611 -0.4651,-0.25717 -0.8125,-0.27149 z m -22.03711,0.006 c -0.54375,-0.007 -1.12484,0.0509 -1.61132,0.17774 v 0.002 c -0.97297,0.25353 -0.41956,0.47915 1.23046,0.49805 1.64996,0.0204 2.44656,-0.18692 1.76954,-0.46094 -0.33852,-0.13738 -0.84493,-0.20999 -1.38868,-0.2168 z m 26,0 c -0.54375,-0.007 -1.12484,0.0509 -1.61132,0.17774 v 0.002 c -0.97297,0.25353 -0.41953,0.47915 1.23046,0.49805 1.64999,0.0204 2.44656,-0.18692 1.76954,-0.46094 -0.33852,-0.13738 -0.84493,-0.20999 -1.38868,-0.2168 z m -21.88086,0.002 c -0.45312,0 -0.90625,0.0683 -1.25,0.20703 -0.68749,0.27726 -0.12499,0.50586 1.25,0.50586 1.37511,0 1.9375,-0.22844 1.25,-0.50586 -0.34374,-0.13871 -0.79687,-0.20703 -1.25,-0.20703 z m 9,0.97851 c -1.35937,0 -2.71873,0.0542 -3.75,0.16211 -2.06248,0.21578 -0.37501,0.39258 3.75,0.39258 4.12494,0 5.81249,-0.17677 3.75,-0.39258 -1.03124,-0.1079 -2.39062,-0.16211 -3.75,-0.16211 z m -22.08203,56.01367 c -0.34739,-0.0143 -0.74454,0.049 -1.10547,0.19336 -0.79774,0.31919 -0.55949,0.55747 0.60547,0.60547 1.05396,0.0434 1.64472,-0.19317 1.3125,-0.52539 -0.16614,-0.16611 -0.46511,-0.25912 -0.8125,-0.27344 z m 44,0 c -0.34739,-0.0143 -0.74452,0.049 -1.10547,0.19336 -0.7977,0.31919 -0.55945,0.55747 0.60547,0.60547 1.05438,0.0434 1.64472,-0.19317 1.3125,-0.52539 -0.16614,-0.16611 -0.4651,-0.25912 -0.8125,-0.27344 z m -22.80078,0.98829 c -1.26875,10e-4 -2.50105,0.0576 -3.38867,0.16797 -1.77524,0.22083 -0.0785,0.39635 3.77148,0.39257 3.85002,-0.004 5.30325,-0.18382 3.22852,-0.40039 -1.03739,-0.10847 -2.34257,-0.16157 -3.61133,-0.16015 z m -10.24609,0.008 c -0.725,-0.003 -1.48742,0.0542 -2.10938,0.17383 v -0.002 c -1.24391,0.23929 -0.4617,0.44374 1.73828,0.45508 2.20007,0.0111 3.21783,-0.18339 2.26172,-0.43359 -0.47803,-0.12454 -1.16562,-0.18987 -1.89062,-0.19336 z m 21,0 c -0.725,-0.003 -1.48744,0.0542 -2.10938,0.17383 v -0.002 c -1.24391,0.23929 -0.4617,0.44374 1.73828,0.45508 2.20007,0.0111 3.21783,-0.18339 2.26172,-0.43359 -0.47805,-0.12454 -1.16562,-0.18987 -1.89062,-0.19336 z m 6.00976,0.01 c -0.54375,-0.007 -1.12484,0.0529 -1.61132,0.17969 -0.97297,0.25349 -0.41953,0.47915 1.23046,0.49805 1.64999,0.0204 2.44656,-0.18692 1.76954,-0.46094 -0.33852,-0.13738 -0.84493,-0.20999 -1.38868,-0.2168 z m -32.88086,0.002 c -0.45311,0 -0.90625,0.0683 -1.25,0.20703 -0.68753,0.27723 -0.12499,0.50391 1.25,0.50391 1.37511,0 1.9375,-0.22649 1.25,-0.50391 -0.34374,-0.13871 -0.79688,-0.20703 -1.25,-0.20703 z"
       style="fill:url(#linearGradient888);fill-opacity:1;stroke:none;stroke-width:0.999999"
       id="path863" />
  </g>
</svg>
